<?xml version="1.0" encoding="UTF-8" standalone="no"?>
<!-- This Source Code Form is subject to the terms of the Mozilla Public
   - License, v. 2.0. If a copy of the MPL was not distributed with this
   - file, You can obtain one at http://mozilla.org/MPL/2.0/. -->

<svg
   xmlns:dc="http://purl.org/dc/elements/1.1/"
   xmlns:cc="http://creativecommons.org/ns#"
   xmlns:rdf="http://www.w3.org/1999/02/22-rdf-syntax-ns#"
   xmlns:svg="http://www.w3.org/2000/svg"
   xmlns="http://www.w3.org/2000/svg"
   xmlns:sodipodi="http://sodipodi.sourceforge.net/DTD/sodipodi-0.dtd"
   xmlns:inkscape="http://www.inkscape.org/namespaces/inkscape"
   width="16"
   height="16"
   viewBox="0 0 16 16"
   version="1.1"
   id="svg4"
   sodipodi:docname="NavByTag Final.svg"
   inkscape:version="0.92.3 (2405546, 2018-03-11)">
  <metadata
     id="metadata10">
    <rdf:RDF>
      <cc:Work
         rdf:about="">
        <dc:format>image/svg+xml</dc:format>
        <dc:type
           rdf:resource="http://purl.org/dc/dcmitype/StillImage" />
        <dc:title></dc:title>
      </cc:Work>
    </rdf:RDF>
  </metadata>
  <defs
     id="defs8" />
  <sodipodi:namedview
     pagecolor="#ffffff"
     bordercolor="#666666"
     borderopacity="1"
     objecttolerance="10"
     gridtolerance="10"
     guidetolerance="10"
     inkscape:pageopacity="0"
     inkscape:pageshadow="2"
     inkscape:window-width="1920"
     inkscape:window-height="1017"
     id="namedview6"
     showgrid="false"
     inkscape:zoom="20.85965"
     inkscape:cx="8.1300292"
     inkscape:cy="11.648747"
     inkscape:window-x="-8"
     inkscape:window-y="-8"
     inkscape:window-maximized="1"
     inkscape:current-layer="svg4" />
  <path
     fill="rgba(12, 12, 13, .8)"
     d="M 7.9921875 0.203125 A 1.1 1.1 0 0 0 7.0175781 0.8125 L 5.0917969 4.6777344 L 1.0117188 5.4082031 A 1.1 1.1 0 0 0 0.39453125 7.2402344 L 3.3222656 10.386719 L 2.7128906 14.746094 A 1.1 1.1 0 0 0 3.8027344 16 A 1.093 1.093 0 0 0 4.3105469 15.878906 L 8 13.953125 L 8 13 L 6 13 C 5.8723341 13 5.7528771 12.971343 5.640625 12.927734 L 4.9355469 13.294922 L 5.0683594 12.341797 C 5.0287409 12.23415 5 12.121396 5 12 L 5 11 C 4.9999035 10.815132 5.0643318 10.649236 5.1523438 10.5 C 5.063739 10.350738 5 10.18617 5 10 L 5 9.2539062 L 2.984375 7.0878906 L 6.4335938 6.4726562 L 8.0019531 3.3222656 L 8.8515625 5.0292969 C 8.9020543 5.0214437 8.9473064 5 9 5 L 10 5 C 10.186075 4.999903 10.352066 5.0632638 10.501953 5.1523438 C 10.650905 5.0642508 10.814412 5 11 5 L 12 5 C 12.552284 5 13 5.447715 13 6 L 13 7.0839844 L 13.021484 7.0878906 L 13 7.1113281 L 13 8 L 14.904297 8 L 15.609375 7.2402344 A 1.1 1.1 0 0 0 14.998047 5.40625 L 10.914062 4.6777344 L 8.9863281 0.8125 A 1.1 1.1 0 0 0 7.9921875 0.203125 z M 13 13 L 13 15 C 13 15.532808 12.579968 15.958228 12.054688 15.988281 A 1.1 1.1 0 0 0 13.291016 14.746094 L 13.046875 13 L 13 13 z "
     id="path817-4-0" />
  <path
     fill="rgba(12, 12, 13, .8)"
     inkscape:connector-curvature="0"
     d="m 9.6267193,6.0338464 -0.002,0.002 c -0.04916,9.99e-4 -0.09785,0.01 -0.144531,0.02539 -0.01528,0.006 -0.03027,0.01233 -0.04492,0.01953 h -0.002 c -0.0147,0.007 -0.02904,0.01494 -0.04297,0.02344 -0.01412,0.008 -0.02781,0.01754 -0.04102,0.02734 h -0.002 c -0.01353,0.01 -0.02657,0.02025 -0.03906,0.03125 -0.0123,0.0111 -0.02403,0.02286 -0.03516,0.03516 -0.01101,0.0119 -0.02145,0.02421 -0.03125,0.03711 v 0.002 c -0.02982,0.0399 -0.05352,0.08401 -0.07031,0.13086 -0.0053,0.0154 -0.0099,0.03099 -0.01367,0.04687 v 0.002 c -0.004,0.0155 -0.0073,0.03108 -0.0098,0.04687 v 0.002 c -0.0035,0.0226 -0.0074,0.04546 -0.0078,0.06836 v 2 0.5 h -0.5 -1.998047 c -0.152263,3.8e-4 -0.296055,0.07011 -0.390625,0.189454 v 0.002 c -0.02089,0.0255 -0.03921,0.05303 -0.05469,0.08203 v 0.002 c -0.02995,0.059 -0.04783,0.123443 -0.05273,0.189453 v 0.002 c -0.0015,0.0162 -0.0021,0.03253 -0.002,0.04883 5e-4,0.0163 0.0018,0.03263 0.0039,0.04883 v 0.002 c 0.0025,0.0164 0.0057,0.03273 0.0098,0.04883 0.0038,0.0158 0.0084,0.03149 0.01367,0.04687 0.01055,0.0319 0.0243,0.0626 0.04102,0.0918 0.01745,0.0287 0.03773,0.05548 0.06055,0.08008 0.01049,0.0122 0.02157,0.02396 0.0332,0.03516 h 0.002 c 0.02399,0.0227 0.05015,0.04295 0.07813,0.06055 h 0.002 c 0.01393,0.008 0.02827,0.01634 0.04297,0.02344 0.01465,0.007 0.02964,0.01373 0.04492,0.01953 h 0.002 c 0.03105,0.0109 0.06311,0.01884 0.0957,0.02344 0.01685,0.002 0.0338,0.0039 0.05078,0.0039 0.0065,1.3e-4 0.01303,1.3e-4 0.01953,0 h 1.966797 c 0.01108,0.0014 0.02208,0.0037 0.0332,0.0039 h 0.498047 v 0.996093 h -0.498047 c -0.0028,7e-6 -0.0051,0.0019 -0.0078,0.002 h -1.994112 c -0.0163,-2e-4 -0.03263,4.59e-4 -0.04883,0.002 -0.10002,0.01024 -0.194645,0.0504 -0.271484,0.115234 -0.0129,0.01044 -0.02531,0.02152 -0.03711,0.0332 v 0.002 c -0.0581,0.05961 -0.100387,0.132791 -0.123047,0.212891 v 0.002 c -0.005,0.01543 -0.009,0.0311 -0.01172,0.04687 v 0.0039 c -0.003,0.01617 -0.0049,0.03247 -0.0059,0.04883 -7.68e-4,0.01562 -7.06e-4,0.03321 0,0.04883 h 0.002 c 10e-4,0.04916 0.01,0.09785 0.02539,0.144532 0.006,0.01528 0.01233,0.03027 0.01953,0.04492 v 0.002 c 0.007,0.0147 0.01494,0.02904 0.02344,0.04297 0.008,0.01412 0.01754,0.02781 0.02734,0.04102 v 0.002 c 0.01,0.01353 0.02025,0.02657 0.03125,0.03906 0.0111,0.0123 0.02286,0.02403 0.03516,0.03516 0.0119,0.01101 0.02421,0.02145 0.03711,0.03125 h 0.002 c 0.0399,0.02982 0.08401,0.05352 0.13086,0.07031 0.0154,0.0053 0.03099,0.0099 0.04687,0.01367 h 0.002 c 0.0155,0.004 0.03108,0.0092 0.04687,0.01172 h 0.002 c 0.0226,0.0035 0.04546,0.0055 0.06836,0.0059 h 1.980469 0.519531 v 0.5 1.998046 c 3.8e-4,0.152263 0.07011,0.296055 0.189453,0.390625 h 0.002 c 0.0255,0.02089 0.05303,0.03921 0.08203,0.05469 h 0.002 c 0.059,0.02995 0.123443,0.04783 0.189453,0.05273 h 0.002 c 0.0162,0.0015 0.03253,0.004 0.04883,0.0039 0.0163,-5.01e-4 0.03263,-0.0018 0.04883,-0.0039 h 0.002 c 0.0164,-0.0025 0.03273,-0.0057 0.04883,-0.0098 0.0158,-0.0038 0.03148,-0.0084 0.04687,-0.01367 0.0319,-0.01055 0.0626,-0.0243 0.0918,-0.04102 0.0287,-0.01745 0.05548,-0.03773 0.08008,-0.06055 0.0122,-0.01049 0.02396,-0.02157 0.03516,-0.0332 v -0.0039 c 0.0227,-0.02399 0.04295,-0.05015 0.06055,-0.07813 v -0.002 c 0.008,-0.01393 0.01634,-0.02827 0.02344,-0.04297 0.007,-0.01465 0.01373,-0.02964 0.01953,-0.04492 v -0.002 c 0.0109,-0.03105 0.01884,-0.06311 0.02344,-0.0957 0.002,-0.01685 0.0039,-0.0338 0.0039,-0.05078 1.3e-4,-0.0065 1.3e-4,-0.01303 0,-0.01953 v -2.001953 -0.498047 h 1 v 0.5 2 c -5.82e-4,0.18874 0.105176,0.361736 0.273438,0.447266 0.01465,0.007 0.02964,0.01373 0.04492,0.01953 h 0.002 c 0.03091,0.0123 0.06297,0.02144 0.0957,0.02734 0.01617,0.003 0.03247,0.0049 0.04883,0.0059 0.01692,8.5e-4 0.03386,8.5e-4 0.05078,0 0.01633,-5e-4 0.03263,-0.0019 0.04883,-0.0039 0.0164,-0.002 0.03269,-0.0038 0.04883,-0.0078 0.002,-7e-4 0.0039,-9.07e-4 0.0059,-0.002 0.0046,-9.99e-4 0.0092,-0.0039 0.01367,-0.0059 0.0098,-0.002 0.0196,-0.0048 0.0293,-0.0078 0.01595,-0.006 0.03158,-0.01223 0.04688,-0.01953 0.0147,-0.007 0.02904,-0.01494 0.04297,-0.02344 0.01478,-0.008 0.02912,-0.01744 0.04297,-0.02734 0.04009,-0.0291 0.07564,-0.06402 0.105469,-0.103516 v -0.002 c 0.04017,-0.0529 0.06939,-0.113364 0.08594,-0.177734 v -0.002 c 0.004,-0.0154 0.0073,-0.03108 0.0098,-0.04687 v -0.002 c 0.0029,-0.0234 0.0043,-0.04681 0.0039,-0.07031 v -1.978515 c 1.3e-4,-0.0065 1.3e-4,-0.01303 0,-0.01953 v -0.5 h 0.500001 c 0.0028,9e-6 0.005,-0.0019 0.0078,-0.002 h 1.992187 c 0.01695,2e-4 0.0339,-2.66e-4 0.05078,-0.002 0.134609,-0.0137 0.257927,-0.08131 0.341797,-0.1875 0.02022,-0.0256 0.03787,-0.05303 0.05274,-0.08203 v -0.002 c 0.0079,-0.0146 0.01507,-0.02962 0.02148,-0.04492 0.01161,-0.031 0.02009,-0.063 0.02539,-0.0957 0.0059,-0.0329 0.0085,-0.06621 0.0078,-0.09961 -5.01e-4,-0.0163 -0.0018,-0.03263 -0.0039,-0.04883 v -0.002 c -0.02204,-0.16827 -0.127941,-0.313899 -0.28125,-0.386719 h -0.002 c -0.06006,-0.0282 -0.125127,-0.04407 -0.191406,-0.04687 h -0.002 c -0.0064,-6.7e-4 -0.01303,-9.06e-4 -0.01953,-0.002 h -2.500001 v -0.998047 h 2.500001 c 0.18874,5.82e-4 0.361736,-0.1051746 0.447266,-0.2734366 0.007,-0.01465 0.01373,-0.02964 0.01953,-0.04492 v -0.002 c 0.0123,-0.03091 0.02144,-0.06297 0.02734,-0.0957 0.003,-0.01617 0.0049,-0.03247 0.0059,-0.04883 8.5e-4,-0.01692 8.5e-4,-0.03386 0,-0.05078 -5e-4,-0.01633 -0.0019,-0.03263 -0.0039,-0.04883 -0.002,-0.0164 -0.0038,-0.03269 -0.0078,-0.04883 -7e-4,-0.002 -9.06e-4,-0.0039 -0.002,-0.0059 -10e-4,-0.0046 -0.0039,-0.0092 -0.0059,-0.01367 -0.002,-0.0098 -0.0048,-0.0196 -0.0078,-0.0293 -0.006,-0.01595 -0.01223,-0.03158 -0.01953,-0.04687 -0.007,-0.0147 -0.01494,-0.02904 -0.02344,-0.04297 -0.008,-0.01478 -0.01744,-0.02912 -0.02734,-0.04297 -0.0291,-0.04009 -0.06402,-0.07564 -0.103516,-0.105468 h -0.002 c -0.0529,-0.04017 -0.113364,-0.06939 -0.177734,-0.08594 h -0.002 c -0.0154,-0.004 -0.03108,-0.0073 -0.04687,-0.0098 h -0.002 c -0.0234,-0.0029 -0.04681,-0.0043 -0.07031,-0.0039 h -1.976562 -0.002 c -0.0064,-6.7e-4 -0.01303,-9.06e-4 -0.01953,-0.002 h -0.500001 v -0.5 c 2e-4,-0.0163 -4.59e-4,-0.03263 -0.002,-0.04883 v -1.949219 c 2e-4,-0.01695 -2.66e-4,-0.0339 -0.002,-0.05078 -0.0137,-0.134609 -0.08131,-0.257927 -0.1875,-0.341797 -0.0256,-0.02022 -0.05303,-0.03787 -0.08203,-0.05273 h -0.002 c -0.0146,-0.0079 -0.02962,-0.01507 -0.04492,-0.02148 -0.031,-0.01161 -0.063,-0.02009 -0.0957,-0.02539 -0.0329,-0.0059 -0.06621,-0.0085 -0.09961,-0.0078 -0.0163,5.01e-4 -0.03263,0.0018 -0.04883,0.0039 h -0.002 c -0.16827,0.02204 -0.313899,0.127941 -0.386719,0.28125 v 0.002 c -0.0282,0.06006 -0.04407,0.125126 -0.04687,0.191406 v 0.002 c -6.7e-4,0.0064 -9.06e-4,0.01303 -0.002,0.01953 v 2 0.498047 h -0.998047 v -2.5 c 2e-4,-0.0163 -4.59e-4,-0.03263 -0.002,-0.04883 -0.01024,-0.10002 -0.0504,-0.194644 -0.115234,-0.271484 -0.01044,-0.0129 -0.02152,-0.02531 -0.0332,-0.03711 h -0.002 c -0.05961,-0.0581 -0.13279,-0.100386 -0.21289,-0.123047 h -0.002 c -0.01543,-0.005 -0.0311,-0.009 -0.04687,-0.01172 h -0.0039 c -0.01617,-0.003 -0.03247,-0.0049 -0.04883,-0.0059 -0.01627,-8e-4 -0.03256,-8e-4 -0.04883,0 z M 10.142344,10.0358 h 0.998047 v 0.998046 h -0.998047 z"
     id="path5688-6" />
</svg>
